<?xml version="1.0" encoding="UTF-8"?>
<svg width="240px" height="120px" viewBox="0 0 240 120" version="1.1" xmlns="http://www.w3.org/2000/svg">
    <defs>
        <!-- Engine Glow Effect -->
        <radialGradient id="engineGlow" cx="0.5" cy="0.5" r="0.5" fx="0.5" fy="0.5">
            <stop offset="0%" stop-color="#FFFF00" stop-opacity="1"/>
            <stop offset="20%" stop-color="#FF9900" stop-opacity="1"/>
            <stop offset="40%" stop-color="#FF6600" stop-opacity="0.8"/>
            <stop offset="100%" stop-color="#FF3300" stop-opacity="0"/>
        </radialGradient>
        
        <!-- Cockpit Glass Gradient -->
        <linearGradient id="cockpitGlass" x1="0%" y1="0%" x2="100%" y2="100%">
            <stop offset="0%" stop-color="#AADDFF" stop-opacity="0.9"/>
            <stop offset="50%" stop-color="#77AAFF" stop-opacity="0.8"/>
            <stop offset="100%" stop-color="#5577FF" stop-opacity="0.9"/>
        </linearGradient>
        
        <!-- Metal Texture -->
        <linearGradient id="metalGradient" x1="0%" y1="0%" x2="0%" y2="100%">
            <stop offset="0%" stop-color="#DDDDDD"/>
            <stop offset="50%" stop-color="#AAAAAA"/>
            <stop offset="100%" stop-color="#888888"/>
        </linearGradient>
        
        <!-- Highlight Effect -->
        <linearGradient id="highlight" x1="0%" y1="0%" x2="100%" y2="0%">
            <stop offset="0%" stop-color="#FFFFFF" stop-opacity="0.7"/>
            <stop offset="15%" stop-color="#FFFFFF" stop-opacity="0.1"/>
            <stop offset="100%" stop-color="#FFFFFF" stop-opacity="0"/>
        </linearGradient>
    </defs>
    
    <g stroke="none" stroke-width="1" fill="none" fill-rule="evenodd">
        <!-- Engine Flames -->
        <g transform="translate(190, 40)">
            <ellipse cx="15" cy="20" rx="30" ry="15" fill="url(#engineGlow)" />
        </g>
        
        <!-- Main Hull - Fuselage -->
        <path d="M20,60 C20,40 60,25 120,25 C180,25 200,40 200,60 C200,80 180,95 120,95 C60,95 20,80 20,60 Z" fill="url(#metalGradient)" stroke="#444444" stroke-width="2"></path>
        
        <!-- Nose Cone -->
        <path d="M20,60 C20,60 10,55 5,50 C0,45 0,75 5,70 C10,65 20,60 20,60 Z" fill="#999999" stroke="#444444" stroke-width="1.5"></path>
        
        <!-- Cockpit Canopy -->
        <path d="M50,40 C55,35 65,32 75,32 C85,32 95,35 100,40 C105,45 105,50 100,55 C95,60 85,63 75,63 C65,63 55,60 50,55 C45,50 45,45 50,40 Z" fill="url(#cockpitGlass)" stroke="#6688AA" stroke-width="1.5"></path>
        <path d="M55,42 C60,38 65,36 75,36 C85,36 90,38 95,42" fill="none" stroke="#FFFFFF" stroke-width="1" stroke-opacity="0.6"></path>
        
        <!-- Upper Hull Details -->
        <path d="M110,25 L130,15 L170,15 L190,25" fill="none" stroke="#666666" stroke-width="2"></path>
        <path d="M110,30 L130,20 L170,20 L190,30" fill="none" stroke="#666666" stroke-width="1"></path>
        
        <!-- Lower Hull Details -->
        <path d="M110,90 L130,100 L170,100 L190,90" fill="none" stroke="#666666" stroke-width="2"></path>
        <path d="M110,85 L130,95 L170,95 L190,85" fill="none" stroke="#666666" stroke-width="1"></path>
        
        <!-- Wing Structures -->
        <path d="M100,35 L90,15 L130,15 L140,35" fill="#999999" stroke="#666666" stroke-width="1.5"></path>
        <path d="M100,85 L90,105 L130,105 L140,85" fill="#999999" stroke="#666666" stroke-width="1.5"></path>
        
        <!-- Engine Nacelles -->
        <rect x="180" y="45" width="20" height="30" rx="5" fill="#777777" stroke="#555555" stroke-width="1.5"></rect>
        <circle cx="190" cy="50" r="3" fill="#444444" />
        <circle cx="190" cy="70" r="3" fill="#444444" />
        
        <!-- Panel Lines -->
        <line x1="40" y1="45" x2="120" y2="45" stroke="#555555" stroke-width="0.8"></line>
        <line x1="40" y1="75" x2="120" y2="75" stroke="#555555" stroke-width="0.8"></line>
        <line x1="140" y1="35" x2="180" y2="35" stroke="#555555" stroke-width="0.8"></line>
        <line x1="140" y1="85" x2="180" y2="85" stroke="#555555" stroke-width="0.8"></line>
        
        <!-- Highlights -->
        <path d="M30,50 C40,45 100,40 180,55" stroke="url(#highlight)" stroke-width="5"></path>
        
        <!-- Antenna -->
        <line x1="110" y1="25" x2="100" y2="10" stroke="#AAAAAA" stroke-width="1"></line>
        <circle cx="100" cy="10" r="2" fill="#CCCCCC" />
    </g>
</svg>