<?xml version="1.0" encoding="UTF-8"?>
<svg width="120px" height="60px" viewBox="0 0 120 60" version="1.1" xmlns="http://www.w3.org/2000/svg">
    <g stroke="none" stroke-width="1" fill="none" fill-rule="evenodd">
        <!-- Main Ship Body -->
        <path d="M20,30 C20,20 40,10 60,10 C80,10 100,20 100,30 C100,40 80,50 60,50 C40,50 20,40 20,30 Z" fill="#CCCCCC" stroke="#555555" stroke-width="2"></path>
        
        <!-- Cockpit -->
        <ellipse cx="35" cy="30" rx="10" ry="8" fill="#99CCFF" stroke="#6699CC" stroke-width="1"></ellipse>
        
        <!-- Wing Structures -->
        <path d="M50,10 L40,2 L80,2 L70,10" fill="#AAAAAA" stroke="#666666"></path>
        <path d="M50,50 L40,58 L80,58 L70,50" fill="#AAAAAA" stroke="#666666"></path>
        
        <!-- Engine Section -->
        <rect x="95" y="20" width="10" height="20" rx="2" fill="#888888" stroke="#555555"></rect>
        
        <!-- Engine Flames -->
        <path d="M105,25 L120,20 L115,30 L120,40 L105,35" fill="#FF6600"></path>
        
        <!-- Detail Lines -->
        <line x1="50" y1="15" x2="90" y2="15" stroke="#777777"></line>
        <line x1="50" y1="45" x2="90" y2="45" stroke="#777777"></line>
        
        <!-- Front Tip -->
        <path d="M20,30 L5,25 L5,35 Z" fill="#BBBBBB" stroke="#666666"></path>
    </g>
</svg>